<?xml version="1.0" encoding="UTF-8"?>
<svg width="100%" height="100%" viewBox="0 0 225 79" xmlns="http://www.w3.org/2000/svg">
  <defs>
    <linearGradient id="mast-grad" x1="0.5" y1="1" x2="0.5" y2="0">
      <stop offset="0%" stop-color="#005190"/>
      <stop offset="100%" stop-color="#3bddff"/>
    </linearGradient>
  </defs>
  <path d="M4.58,69.77L4.68,72.01C22.12,76.12,37.62,70.37,50.52,65.56L54.08,60.13C38.66,67.03,25.21,71.55,4.58,69.77Z" fill="#006aa9"/>
  <path d="M32.35,24.07L50.67,54.41C42.61,59.64,34.78,60.9,29.43,60.07C34.39,50.2,36.79,39.66,32.35,24.07Z" fill="#3bddff"/>
  <path d="M7.76,62.1L4.79,68.45C18.48,69.3,35.26,68.46,53.57,58.85C51.93,58.67,48.89,58.35,46.55,58.32C42.87,59.58,37.68,62.87,27.34,61.06C27.44,60.85,28.49,58.91,28.49,58.91C25.7,59.25,23.45,59.49,20.8,59.81L15.13,63.45L15.55,60.49L7.76,62.1Z" fill="#005190"/>
  <path d="M25.61,4.86C24.97,4.58,24.5,4.76,24.11,5.14L32.27,48.61C32.53,47.28,32.82,46.1,33.01,44.3L25.61,4.86Z" fill="url(#mast-grad)"/>
  <path d="M23.43,9.49L31.22,52.1L16.88,60.72L23.43,9.49Z" fill="#00bcff"/>
  <g fill="#0f172a">
    <path d="M79.87 67.56L79.87 67.56Q76.29 67.56 73.57 66.22Q70.86 64.87 69.06 62.46L69.06 62.46L74.22 57.54Q76.23 60.50 79.82 60.50L79.82 60.50Q82.45 60.50 84.02 58.88Q85.58 57.26 85.58 54.23L85.58 54.23L85.58 27.63L93.26 27.63L93.26 53.78Q93.26 57.98 91.60 61.09Q89.95 64.20 86.93 65.88Q83.90 67.56 79.87 67.56Z"/>
    <path d="M103.67 35.58L103.67 35.58Q101.88 35.58 100.70 34.38Q99.53 33.18 99.53 31.38L99.53 31.38Q99.53 29.65 100.70 28.42Q101.88 27.18 103.67 27.18L103.67 27.18Q105.46 27.18 106.64 28.42Q107.82 29.65 107.82 31.38L107.82 31.38Q107.82 33.18 106.64 34.38Q105.46 35.58 103.67 35.58ZM107.37 67L99.98 67L99.98 39.95L107.37 39.95L107.37 67Z"/>
    <path d="M121.14 67L113.86 67L113.86 26.51L121.20 26.51L121.20 42.25Q122.66 40.90 124.62 40.15Q126.58 39.39 128.87 39.39L128.87 39.39Q132.62 39.39 135.59 41.24Q138.56 43.09 140.27 46.31Q141.98 49.53 141.98 53.50L141.98 53.50Q141.98 57.48 140.27 60.67Q138.56 63.86 135.59 65.71Q132.62 67.56 128.87 67.56L128.87 67.56Q126.52 67.56 124.53 66.78Q122.54 65.99 121.14 64.59L121.14 64.59L121.14 67ZM127.64 60.78L127.64 60.78Q130.61 60.78 132.54 58.74Q134.47 56.70 134.47 53.45L134.47 53.45Q134.47 50.26 132.54 48.21Q130.61 46.17 127.58 46.17L127.58 46.17Q124.56 46.17 122.66 48.21Q120.75 50.26 120.75 53.45L120.75 53.45Q120.75 56.70 122.66 58.74Q124.56 60.78 127.64 60.78Z"/>
    <path d="M159.56 67.56L159.56 67.56Q155.42 67.56 152.11 65.71Q148.81 63.86 146.90 60.67Q145 57.48 145 53.50L145 53.50Q145 49.47 146.93 46.28Q148.86 43.09 152.14 41.21Q155.42 39.34 159.56 39.34L159.56 39.34Q166 39.34 170.09 43.87L170.09 43.87L165.38 48.63Q163.20 46.22 159.56 46.22L159.56 46.22Q156.48 46.22 154.49 48.24Q152.50 50.26 152.50 53.45L152.50 53.45Q152.50 56.70 154.49 58.71Q156.48 60.73 159.56 60.73L159.56 60.73Q163.26 60.73 165.44 58.21L165.44 58.21L170.20 62.97Q166 67.56 159.56 67.56Z"/>
    <path d="M183.64 67.62L183.64 67.62Q180.11 67.62 177.00 66.30Q173.90 64.98 171.88 62.63L171.88 62.63L176.25 58.21Q179.05 61.34 183.58 61.34L183.58 61.34Q187.22 61.34 187.22 59.33L187.22 59.33Q187.22 58.21 186.24 57.59Q185.26 56.98 183.70 56.56Q182.13 56.14 180.39 55.60Q178.66 55.07 177.12 54.20Q175.58 53.34 174.60 51.80Q173.62 50.26 173.62 47.79L173.62 47.79Q173.62 43.93 176.42 41.60Q179.22 39.28 184.03 39.28L184.03 39.28Q187.39 39.28 190.11 40.46Q192.82 41.63 194.62 43.98L194.62 43.98L190.19 48.41Q188.96 46.90 187.42 46.22Q185.88 45.55 184.09 45.55L184.09 45.55Q180.73 45.55 180.73 47.46L180.73 47.46Q180.73 48.46 181.71 49.02Q182.69 49.58 184.23 50.00Q185.77 50.42 187.50 50.96Q189.24 51.49 190.78 52.41Q192.32 53.34 193.30 54.93Q194.28 56.53 194.28 58.99L194.28 58.99Q194.28 63.02 191.42 65.32Q188.57 67.62 183.64 67.62Z"/>
    <path d="M208.50 67.62L208.50 67.62Q204.98 67.62 201.87 66.30Q198.76 64.98 196.74 62.63L196.74 62.63L201.11 58.21Q203.91 61.34 208.45 61.34L208.45 61.34Q212.09 61.34 212.09 59.33L212.09 59.33Q212.09 58.21 211.11 57.59Q210.13 56.98 208.56 56.56Q206.99 56.14 205.26 55.60Q203.52 55.07 201.98 54.20Q200.44 53.34 199.46 51.80Q198.48 50.26 198.48 47.79L198.48 47.79Q198.48 43.93 201.28 41.60Q204.08 39.28 208.90 39.28L208.90 39.28Q212.26 39.28 214.97 40.46Q217.69 41.63 219.48 43.98L219.48 43.98L215.06 48.41Q213.82 46.90 212.28 46.22Q210.74 45.55 208.95 45.55L208.95 45.55Q205.59 45.55 205.59 47.46L205.59 47.46Q205.59 48.46 206.57 49.02Q207.55 49.58 209.09 50.00Q210.63 50.42 212.37 50.96Q214.10 51.49 215.64 52.41Q217.18 53.34 218.16 54.93Q219.14 56.53 219.14 58.99L219.14 58.99Q219.14 63.02 216.29 65.32Q213.43 67.62 208.50 67.62Z"/>
  </g>
</svg>
